<svg xmlns="http://www.w3.org/2000/svg" viewBox="0 0 1200 600" fill="none">
  <defs>
    <linearGradient id="skyGradient" x1="0%" y1="0%" x2="0%" y2="100%">
      <stop offset="0%" style="stop-color:#87CEEB;stop-opacity:1" />
      <stop offset="50%" style="stop-color:#4FB3D9;stop-opacity:1" />
      <stop offset="100%" style="stop-color:#2E8B9B;stop-opacity:1" />
    </linearGradient>
    <filter id="blur" x="-50%" y="-50%" width="200%" height="200%">
      <feGaussianBlur in="SourceGraphic" stdDeviation="2"/>
    </filter>
  </defs>
  
  <!-- Sky background -->
  <rect width="1200" height="600" fill="url(#skyGradient)"/>
  
  <!-- Clouds -->
  <ellipse cx="200" cy="150" rx="80" ry="30" fill="rgba(255,255,255,0.3)" filter="url(#blur)"/>
  <ellipse cx="180" cy="140" rx="60" ry="25" fill="rgba(255,255,255,0.2)" filter="url(#blur)"/>
  <ellipse cx="220" cy="145" rx="70" ry="28" fill="rgba(255,255,255,0.25)" filter="url(#blur)"/>
  
  <ellipse cx="800" cy="100" rx="90" ry="35" fill="rgba(255,255,255,0.3)" filter="url(#blur)"/>
  <ellipse cx="780" cy="90" rx="70" ry="30" fill="rgba(255,255,255,0.2)" filter="url(#blur)"/>
  <ellipse cx="820" cy="95" rx="80" ry="32" fill="rgba(255,255,255,0.25)" filter="url(#blur)"/>
  
  <ellipse cx="1000" cy="200" rx="75" ry="28" fill="rgba(255,255,255,0.2)" filter="url(#blur)"/>
  <ellipse cx="980" cy="195" rx="55" ry="22" fill="rgba(255,255,255,0.15)" filter="url(#blur)"/>
  
  <!-- Airplane silhouettes -->
  <!-- Main airplane -->
  <g transform="translate(300, 250) scale(1.2)" fill="rgba(255,255,255,0.4)">
    <path d="M0,0 L80,0 L90,5 L95,0 L105,0 L110,8 L105,15 L95,10 L90,15 L80,10 L0,10 Z"/>
    <path d="M20,5 L20,25 L60,20 L60,0"/>
    <path d="M85,2 L85,8 L100,6 L100,4"/>
    <ellipse cx="110" cy="7.5" rx="3" ry="7.5"/>
  </g>
  
  <!-- Small airplane in distance -->
  <g transform="translate(700, 180) scale(0.6)" fill="rgba(255,255,255,0.3)">
    <path d="M0,0 L80,0 L90,5 L95,0 L105,0 L110,8 L105,15 L95,10 L90,15 L80,10 L0,10 Z"/>
    <path d="M20,5 L20,25 L60,20 L60,0"/>
    <path d="M85,2 L85,8 L100,6 L100,4"/>
    <ellipse cx="110" cy="7.5" rx="3" ry="7.5"/>
  </g>
  
  <!-- Tiny airplane high up -->
  <g transform="translate(950, 120) scale(0.4)" fill="rgba(255,255,255,0.25)">
    <path d="M0,0 L80,0 L90,5 L95,0 L105,0 L110,8 L105,15 L95,10 L90,15 L80,10 L0,10 Z"/>
    <path d="M20,5 L20,25 L60,20 L60,0"/>
    <path d="M85,2 L85,8 L100,6 L100,4"/>
    <ellipse cx="110" cy="7.5" rx="3" ry="7.5"/>
  </g>
  
  <!-- Another small plane -->
  <g transform="translate(100, 350) scale(0.5)" fill="rgba(255,255,255,0.2)">
    <path d="M0,0 L80,0 L90,5 L95,0 L105,0 L110,8 L105,15 L95,10 L90,15 L80,10 L0,10 Z"/>
    <path d="M20,5 L20,25 L60,20 L60,0"/>
    <path d="M85,2 L85,8 L100,6 L100,4"/>
    <ellipse cx="110" cy="7.5" rx="3" ry="7.5"/>
  </g>
  
  <!-- Contrails/vapor trails -->
  <path d="M400,260 Q500,255 600,250" stroke="rgba(255,255,255,0.3)" stroke-width="2" fill="none" opacity="0.7"/>
  <path d="M400,265 Q500,260 600,255" stroke="rgba(255,255,255,0.2)" stroke-width="1" fill="none" opacity="0.5"/>
  
  <path d="M750,190 Q850,185 950,180" stroke="rgba(255,255,255,0.25)" stroke-width="1.5" fill="none" opacity="0.6"/>
  
  <!-- Additional atmospheric effects -->
  <circle cx="150" cy="400" r="40" fill="rgba(255,255,255,0.1)" filter="url(#blur)"/>
  <circle cx="1050" cy="450" r="35" fill="rgba(255,255,255,0.08)" filter="url(#blur)"/>
  
  <!-- Light rays effect -->
  <path d="M0,300 L1200,200" stroke="rgba(255,255,255,0.1)" stroke-width="1" opacity="0.3"/>
  <path d="M0,350 L1200,250" stroke="rgba(255,255,255,0.08)" stroke-width="1" opacity="0.2"/>
</svg>